<?xml version="1.0" encoding="UTF-8" standalone="no"?>
<!DOCTYPE svg PUBLIC "-//W3C//DTD SVG 1.1//EN" "http://www.w3.org/Graphics/SVG/1.1/DTD/svg11.dtd">
<svg width="100%" height="100%" viewBox="0 0 256 256" version="1.1" xmlns="http://www.w3.org/2000/svg" xmlns:xlink="http://www.w3.org/1999/xlink" xml:space="preserve" style="fill-rule:evenodd;clip-rule:evenodd;stroke-linejoin:round;stroke-miterlimit:1.41421;">
    <g transform="matrix(1,0,0,1,-6,-13.2308)">
        <path d="M150.724,127.462C156.686,106.983 175.607,92 198,92C220.922,92 240.206,107.699 245.677,128.923L255.846,128.923C259.243,128.923 262,131.681 262,135.077C262,138.473 259.243,141.231 255.846,141.231L247.231,141.231C247.231,168.402 225.171,190.462 198,190.462C170.829,190.462 148.769,168.402 148.769,141.231C148.769,139.985 148.816,138.751 148.907,137.529C144.37,136.456 139.297,135.815 134,135.815C128.703,135.815 123.63,136.456 119.093,137.529C119.184,138.751 119.231,139.985 119.231,141.231C119.231,168.402 97.171,190.462 70,190.462C42.829,190.462 20.769,168.402 20.769,141.231L12.154,141.231C8.757,141.231 6,138.473 6,135.077C6,131.681 8.757,128.923 12.154,128.923L22.323,128.923C27.794,107.699 47.078,92 70,92C92.393,92 111.314,106.983 117.276,127.462C122.032,125.279 127.794,124 134,124C140.206,124 145.968,125.279 150.724,127.462ZM198,106.769C217.02,106.769 232.462,122.211 232.462,141.231C232.462,160.251 217.02,175.692 198,175.692C178.98,175.692 163.538,160.251 163.538,141.231C163.538,122.211 178.98,106.769 198,106.769ZM70,106.769C89.02,106.769 104.462,122.211 104.462,141.231C104.462,160.251 89.02,175.692 70,175.692C50.98,175.692 35.538,160.251 35.538,141.231C35.538,122.211 50.98,106.769 70,106.769Z" style="fill:rgb(0,161,222);"/>
    </g>
</svg>
